<?xml version="1.0" ?>
<!-- Uploaded to: SVG Repo, www.svgrepo.com, Generator: SVG Repo Mixer Tools -->
<svg fill="#000000" width="800px" height="800px" viewBox="0 0 64 64" version="1.1" xml:space="preserve" xmlns="http://www.w3.org/2000/svg" xmlns:xlink="http://www.w3.org/1999/xlink">
<g id="cloudy_sunny"/>
<g id="bright"/>
<g id="cloudy"/>
<g id="high_rainfall"/>
<g id="windy"/>
<g id="rain_with_thunder"/>
<g id="clear_night"/>
<g id="cloudy_night"/>
<g id="moon"/>
<g id="sun"/>
<g id="rainy_night"/>
<g id="windy_night"/>
<g id="night_rain_thunder"/>
<g id="windy_rain"/>
<g id="temperature"/>
<g id="humidity"/>
<g id="air_pressure"/>
<g id="low_rainfall"/>
<g id="moderate_rainfall">
<path d="M50,24h-3c-0.5-7.8-7-14-15-14c-6.4,0-12.1,4.1-14.2,10.1C9.8,19,3,25.2,3,33c0,7.2,5.8,13,13,13h0.1   C16,46.3,16,46.7,16,47c0,3.9,3.1,7,7,7s7-3.1,7-7c0-0.3,0-0.7-0.1-1h4.2C34,46.3,34,46.7,34,47c0,3.9,3.1,7,7,7s7-3.1,7-7   c0-0.3,0-0.7-0.1-1H50c6.1,0,11-4.9,11-11S56.1,24,50,24z M23,52c-2.8,0-5-2.2-5-5c0-2.6,3.1-6.5,5-8.6c1.9,2,5,6,5,8.6   C28,49.8,25.8,52,23,52z M41,52c-2.8,0-5-2.2-5-5c0-2.6,3.1-6.5,5-8.6c1.9,2,5,6,5,8.6C46,49.8,43.8,52,41,52z M50,44h-2.7   c-1.5-3.6-5.1-7.2-5.6-7.7c-0.4-0.4-1-0.4-1.4,0c-0.5,0.5-4,4.1-5.6,7.7h-5.5c-1.5-3.6-5.1-7.2-5.6-7.7c-0.4-0.4-1-0.4-1.4,0   c-0.5,0.5-4,4.1-5.6,7.7H16C9.9,44,5,39.1,5,33s4.9-11,11-11c0.7,0,1.5,0.1,2.3,0.2c0.5,0.1,1-0.2,1.2-0.7C21,15.9,26.2,12,32,12   c7.2,0,13,5.8,13,13c0,0.6,0.4,1,1,1h4c5,0,9,4,9,9S55,44,50,44z"/>
</g>
<g id="Sunset"/>
</svg>